<svg xmlns="http://www.w3.org/2000/svg" width="16" height="16" data-name="Layer 1" viewBox="0 0 64 64"><path d="M44,43.54a2.0001,2.0001,0,0,0-2,2V59a1.001,1.001,0,0,1-1,1H11a1.001,1.001,0,0,1-1-1V5a1.001,1.001,0,0,1,1-1H41a1.001,1.001,0,0,1,1,1V20.47021a2,2,0,1,0,4,0V5a5.00588,5.00588,0,0,0-5-5H11A5.00588,5.00588,0,0,0,6,5V9a2.0001,2.0001,0,0,0-2,2v8a2.0001,2.0001,0,0,0,2,2v2a2.0001,2.0001,0,0,0-2,2v2a2.0001,2.0001,0,0,0,2,2V59a5.00588,5.00588,0,0,0,5,5H41a5.00588,5.00588,0,0,0,5-5V45.54A2.0001,2.0001,0,0,0,44,43.54Z"></path><path d="M21,54a2,2,0,0,0,0,4h8a2,2,0,0,0,0-4Z"></path><circle cx="42" cy="33" r="2"></circle><path d="M52,33a10.04789,10.04789,0,0,0-4.93555-8.623,1.99968,1.99968,0,1,0-2.02929,3.44629,6.00186,6.00186,0,0,1,0,10.35352,1.99968,1.99968,0,1,0,2.02929,3.44629A10.04789,10.04789,0,0,0,52,33Z"></path><path d="M51.07031,17.44385A2.00023,2.00023,0,0,0,49.04883,20.896a14.01387,14.01387,0,0,1,0,24.208,2.00023,2.00023,0,0,0,2.02148,3.45215,18.0148,18.0148,0,0,0,0-31.1123Z"></path></svg>
