<svg xmlns="http://www.w3.org/2000/svg" width="16" height="16" viewBox="0 0 16 16"><path style="line-height:normal;text-indent:0;text-align:start;text-decoration-line:none;text-decoration-style:solid;text-decoration-color:#000;text-transform:none;block-progression:tb;white-space:normal;isolation:auto;mix-blend-mode:normal;solid-color:#000;solid-opacity:1" d="M 10.984375 1.0058594 C 9.331023 1.0058594 7.984375 2.3525594 7.984375 4.0058594 L 7.984375 6.0058594 C 7.984375 6.9665116 8.4471152 7.8137137 9.1523438 8.3632812 C 7.2639881 9.1474424 5.9089818 11.147208 5.8457031 13.492188 A 0.50005 0.50005 0 0 0 6.34375 14.005859 L 15.496094 14.021484 A 0.50005 0.50005 0 0 0 15.998047 13.509766 C 15.941964 11.20057 14.632452 9.2116769 12.771484 8.4003906 C 13.503295 7.8526534 13.984375 6.9875656 13.984375 6.0058594 L 13.984375 4.0058594 C 13.984375 2.3525594 12.637726 1.0058594 10.984375 1.0058594 z M 10.984375 2.0058594 C 12.101023 2.0058594 12.984375 2.8892594 12.984375 4.0058594 L 12.984375 6.0058594 C 12.984375 7.1225594 12.101023 8.0058594 10.984375 8.0058594 C 9.867726 8.0058594 8.984375 7.1225594 8.984375 6.0058594 L 8.984375 4.0058594 C 8.984375 2.8892594 9.867726 2.0058594 10.984375 2.0058594 z M 4.4667969 4.0058594 C 3.0904459 4.0058594 1.9667969 5.1295594 1.9667969 6.5058594 L 1.9667969 7.5058594 C 1.9667969 8.2398532 2.2937792 8.8934071 2.8007812 9.3515625 C 1.1913512 10.028065 0.058451514 11.629816 0.001953125 13.478516 A 0.50005 0.50005 0 0 0 0.5 13.994141 L 4.4550781 14.003906 A 0.50005 0.50005 0 1 0 4.4570312 13.003906 L 1.1171875 12.994141 C 1.4170505 11.278341 2.8160455 9.9514062 4.6015625 10.003906 A 0.50005 0.50005 0 0 0 4.828125 9.96875 C 6.0334682 9.7917225 6.9667969 8.7588665 6.9667969 7.5058594 L 6.9667969 6.5058594 C 6.9667969 5.1295594 5.8431479 4.0058594 4.4667969 4.0058594 z M 4.4667969 5.0058594 C 5.3064449 5.0058594 5.9667969 5.6662594 5.9667969 6.5058594 L 5.9667969 7.5058594 C 5.9667969 8.3455594 5.3064449 9.0058594 4.4667969 9.0058594 C 3.6271489 9.0058594 2.9667969 8.3455594 2.9667969 7.5058594 L 2.9667969 6.5058594 C 2.9667969 5.6662594 3.6271489 5.0058594 4.4667969 5.0058594 z M 11.042969 9.0097656 C 13.018038 9.0777656 14.614984 10.784631 14.896484 13.019531 L 6.9511719 13.007812 C 7.2499779 10.673712 8.9766927 8.9389656 11.042969 9.0097656 z " font-family="sans-serif" font-weight="400"></path></svg>
