<svg xmlns="http://www.w3.org/2000/svg" width="16" fill="#00FFC4" height="16"  viewBox="0 0 32 32"><path d="M2.22 14a1.18 1.18 0 0 0 0 .2 1.3 1.3 0 0 0 .08.17.86.86 0 0 0 .1.16l.14.13.16.1.19.07s.07 0 .11 0H8.37a.84.84 0 0 0 .35-.07l.11 0A.67.67 0 0 0 9 14.66l.1-.09a1.22 1.22 0 0 0 .12-.19l.06-.13s0-.05 0-.08a7 7 0 0 1 5-5l.06 0a.51.51 0 0 0 .18-.09l.16-.1a.81.81 0 0 0 .12-.14A.91.91 0 0 0 15 8.66 1.15 1.15 0 0 0 15 8.49a.71.71 0 0 0 0-.2s0 0 0-.08V3s0 0 0-.07a.22.22 0 0 0 0-.08s0-.07 0-.11A1.07 1.07 0 0 0 15 2.59a.78.78 0 0 0-.1-.15.66.66 0 0 0-.14-.15.71.71 0 0 0-.14-.1l-.19-.08-.18 0-.12 0-.08 0a.22.22 0 0 0-.08 0A14 14 0 0 0 2.21 13.77a.22.22 0 0 0 0 .08s0 .05 0 .07A.42.42 0 0 0 2.22 14zM13.08 4.28V7.5a8.92 8.92 0 0 0-5.43 5.42H4.43A12 12 0 0 1 13.08 4.28zM29 16.93H23.78a1 1 0 0 0-1 .75 7 7 0 0 1-6.74 5.21 6.48 6.48 0 0 1-1.93-.28h-.05a.65.65 0 0 0-.2 0 1.08 1.08 0 0 0-.18 0l-.19.05-.17.07a1.49 1.49 0 0 0-.14.12.66.66 0 0 0-.15.14l0 0-3 4.3s0 .06 0 .09l-.06.08s0 .06 0 .1a1.29 1.29 0 0 0 0 .19.6.6 0 0 0 0 .19.58.58 0 0 0 0 .19 1.11 1.11 0 0 0 .17.33 1 1 0 0 0 .14.15.46.46 0 0 0 .07.07.39.39 0 0 0 .11.06l.06 0A13.91 13.91 0 0 0 16.07 30 14.14 14.14 0 0 0 29.94 18.08a1 1 0 0 0-1-1.15zM16.07 28a11.93 11.93 0 0 1-3.67-.57l1.89-2.7a8.75 8.75 0 0 0 1.78.2 9 9 0 0 0 8.45-6h3.2A12.13 12.13 0 0 1 16.07 28zM17.13 8.49a1.15 1.15 0 0 0 .06.17.91.91 0 0 0 .11.16.81.81 0 0 0 .12.14l.16.1a.61.61 0 0 0 .18.09.15.15 0 0 0 .07 0 7 7 0 0 1 5 5 1 1 0 0 0 1 .75H29a1 1 0 0 0 .75-.34 1 1 0 0 0 .23-.81A14 14 0 0 0 18.23 2.06a.22.22 0 0 0-.08 0l-.07 0a.5.5 0 0 0-.13 0l-.19 0-.18.08-.15.1-.13.14a.86.86 0 0 0-.1.16 1.07 1.07 0 0 0-.07.19s0 .07 0 .11a.22.22 0 0 0 0 .08s0 0 0 .07V8.21s0 0 0 .08A.71.71 0 0 0 17.13 8.49zm10.6 4.43H24.52a8.93 8.93 0 0 0-5.44-5.43V4.28A12 12 0 0 1 27.73 12.92zM11.46 22.33s0-.08 0-.12a1.42 1.42 0 0 0 .08-.18.58.58 0 0 0 0-.19.6.6 0 0 0 0-.19.58.58 0 0 0 0-.18 1.34 1.34 0 0 0-.07-.18.91.91 0 0 0-.11-.16l-.08-.1a6.89 6.89 0 0 1-2-3.35l0 0a.83.83 0 0 0-.12-.25l-.06-.09a.91.91 0 0 0-.21-.18s-.05-.05-.08-.06A1.06 1.06 0 0 0 8.59 17l-.13 0-.09 0H3.19l-.09 0H3L3 17a1.45 1.45 0 0 0-.22.09.67.67 0 0 0-.14.09.93.93 0 0 0-.15.13 1.63 1.63 0 0 0-.11.17 1 1 0 0 0-.07.15 1 1 0 0 0 0 .23s0 .06 0 .09 0 0 0 .06 0 .07 0 .1A14 14 0 0 0 7.09 26.7l0 0 0 0a1.19 1.19 0 0 0 .16.08l.09.05a1.19 1.19 0 0 0 .32.05h0a1 1 0 0 0 .44-.11l.11-.08a1.28 1.28 0 0 0 .22-.17s0 0 0 0l0 0zm-7-3.41H7.64a8.85 8.85 0 0 0 1.72 2.93l-1.8 2.57A12.06 12.06 0 0 1 4.42 18.92z" data-name="chart 3"></path></svg>
