<svg xmlns="http://www.w3.org/2000/svg" width="16" fill="#00FFC4" height="16"  viewBox="0 0 64 64"><path d="M36.71 18.97L9.78 25.31c-2.48.58-4.37 2.39-5.07 4.84-.7 2.45-.04 4.98 1.76 6.78l2.14 2.14-4.89 4.89c-1.31 1.31-2.03 3.04-2.03 4.89s.72 3.59 2.03 4.89l6.52 6.52c1.31 1.31 3.04 2.03 4.89 2.03s3.59-.72 4.89-2.03l4.89-4.89 2.14 2.14c1.8 1.8 4.34 2.46 6.78 1.76 2.45-.7 4.26-2.59 4.84-5.07l6.34-26.92c.55-2.35-.14-4.77-1.84-6.48C41.48 19.11 39.06 18.42 36.71 18.97zM40.54 26.24L34.2 53.16c-.28 1.19-1.22 1.58-1.61 1.69-.39.11-1.4.28-2.26-.59l-3.77-3.77c-.9-.9-2.36-.9-3.26 0l-6.52 6.52c-.87.87-2.39.87-3.26 0l-6.52-6.52c-.44-.44-.68-1.01-.68-1.63s.24-1.2.68-1.63l6.52-6.52c.9-.9.9-2.36 0-3.26l-3.77-3.77c-.86-.86-.7-1.87-.59-2.26.11-.39.5-1.33 1.69-1.61l26.92-6.34c1.13-.27 1.89.34 2.16.61C40.2 24.35 40.8 25.11 40.54 26.24zM55.86 8.14c-.87-.87-2.29-.87-3.17 0l-6.52 6.52c-.87.87-.87 2.29 0 3.17.44.44 1.01.66 1.58.66s1.15-.22 1.58-.66l6.52-6.52C56.74 10.43 56.74 9.01 55.86 8.14zM60 21.84h-8.05c-1.24 0-2.24 1-2.24 2.24 0 1.24 1 2.24 2.24 2.24H60c1.24 0 2.24-1 2.24-2.24C62.24 22.84 61.24 21.84 60 21.84zM39.92 14.29c1.24 0 2.24-1 2.24-2.24V4c0-1.24-1-2.24-2.24-2.24s-2.24 1-2.24 2.24v8.05C37.69 13.28 38.69 14.29 39.92 14.29z"></path></svg>
