<svg xmlns="http://www.w3.org/2000/svg" width="18" height="18" fill="#00FFC4" viewBox="0 0 32 32"><path d="m 15.960941,3.0007762 a 1.0000999,1.0000999 0 0 0 -0.2207,0.0332 L 4.7402409,5.9812461 a 1.0000999,1.0000999 0 0 0 -0.74024,0.96484 V 16.998826 c 0,3.35761 1.66812,5.71262 3.89454,7.42578 2.2264101,1.71317 5.0035301,2.93917 7.6054601,4.4414 a 1.0000999,1.0000999 0 0 0 1,0 c 2.51148,-1.45001 5.29053,-2.6782 7.53711,-4.40234 2.24657,-1.72415 3.96289,-4.09755 3.96289,-7.46484 V 6.9460861 a 1.0000999,1.0000999 0 0 0 -0.74218,-0.96484 l -11,-2.9472699 a 1.0000999,1.0000999 0 0 0 -0.29688,-0.0332 z m -0.96094,2.3007799 V 26.299606 c -2.18207,-1.18293 -4.3191,-2.25276 -5.8867201,-3.45899 -1.94322,-1.49525 -3.11328,-3.1054 -3.11328,-5.84179 V 7.7136661 Z" font-family="sans-serif" font-weight="400" style="line-height:normal;font-variant-ligatures:normal;font-variant-position:normal;font-variant-caps:normal;font-variant-numeric:normal;font-variant-alternates:normal;font-feature-settings:normal;text-indent:0;text-align:start;text-decoration-line:none;text-decoration-style:solid;text-decoration-color:#000;text-transform:none;text-orientation:mixed;shape-padding:0;isolation:auto;mix-blend-mode:normal"></path></svg>
