<svg xmlns="http://www.w3.org/2000/svg" width="20" height="21" viewBox="0 0 20 21" fill="none">
  <path d="M10 6.54749C10.6799 6.54749 11.3445 6.74909 11.9098 7.12681C12.4751 7.50453 12.9157 8.04139 13.1758 8.66951C13.436 9.29763 13.5041 9.9888 13.3715 10.6556C13.2388 11.3224 12.9114 11.9349 12.4307 12.4157C11.9499 12.8964 11.3374 13.2238 10.6706 13.3564C10.0038 13.4891 9.31265 13.421 8.68453 13.1608C8.05641 12.9006 7.51954 12.4601 7.14182 11.8948C6.76411 11.3295 6.5625 10.6649 6.5625 9.98499C6.5625 9.53357 6.65141 9.08657 6.82416 8.66951C6.99691 8.25245 7.25012 7.87351 7.56932 7.55431C7.88852 7.2351 8.26747 6.9819 8.68452 6.80915C9.10158 6.6364 9.54858 6.54749 10 6.54749ZM13.75 5.60999H15V6.85999C15 7.02575 15.0658 7.18472 15.1831 7.30193C15.3003 7.41914 15.4592 7.48499 15.625 7.48499C15.7908 7.48499 15.9497 7.41914 16.0669 7.30193C16.1842 7.18472 16.25 7.02575 16.25 6.85999V5.60999H17.5C17.6658 5.60999 17.8247 5.54414 17.9419 5.42693C18.0592 5.30972 18.125 5.15075 18.125 4.98499C18.125 4.81923 18.0592 4.66026 17.9419 4.54305C17.8247 4.42584 17.6658 4.35999 17.5 4.35999H16.25V3.10999C16.25 2.94423 16.1842 2.78526 16.0669 2.66805C15.9497 2.55084 15.7908 2.48499 15.625 2.48499C15.4592 2.48499 15.3003 2.55084 15.1831 2.66805C15.0658 2.78526 15 2.94423 15 3.10999V4.35999H13.75C13.5842 4.35999 13.4253 4.42584 13.3081 4.54305C13.1908 4.66026 13.125 4.81923 13.125 4.98499C13.125 5.15075 13.1908 5.30972 13.3081 5.42693C13.4253 5.54414 13.5842 5.60999 13.75 5.60999ZM17.3094 8.80968C17.1457 8.83564 16.999 8.92556 16.9016 9.05968C16.8041 9.19379 16.764 9.36111 16.7899 9.52482C16.8466 9.88377 16.875 10.2466 16.875 10.61C16.8763 12.293 16.2577 13.9174 15.1374 15.1733C14.6356 14.4464 13.985 13.8346 13.2287 13.3784C12.359 14.209 11.2026 14.6725 10 14.6725C8.79738 14.6725 7.64102 14.209 6.77132 13.3784C6.01499 13.8345 5.36436 14.4464 4.86263 15.1733C3.98177 14.1832 3.406 12.9595 3.20472 11.6497C3.00344 10.3399 3.18522 8.99979 3.72817 7.79091C4.27112 6.58204 5.15207 5.55597 6.26486 4.83634C7.37765 4.11671 8.6748 3.73423 10 3.73499C10.3634 3.73495 10.7262 3.76339 11.0852 3.82006C11.1663 3.83291 11.2491 3.82967 11.3289 3.81052C11.4087 3.79137 11.484 3.75669 11.5504 3.70845C11.6168 3.66021 11.6731 3.59936 11.716 3.52938C11.7588 3.4594 11.7875 3.38165 11.8004 3.30058C11.8132 3.21951 11.81 3.13671 11.7908 3.05689C11.7717 2.97708 11.737 2.90182 11.6887 2.83541C11.6405 2.76901 11.5796 2.71276 11.5096 2.66987C11.4396 2.62698 11.3619 2.5983 11.2808 2.58547C10.1203 2.40131 8.93359 2.47087 7.8025 2.78936C6.67141 3.10785 5.62279 3.66771 4.72885 4.43037C3.8349 5.19304 3.11687 6.14039 2.6242 7.2072C2.13153 8.274 1.87593 9.43492 1.875 10.61C1.87455 11.7374 2.1093 12.8525 2.56424 13.884C3.01919 14.9155 3.68432 15.8408 4.51714 16.6007C4.54808 16.6354 4.58284 16.6666 4.62075 16.6936C6.10405 18.0088 8.01778 18.735 10.0002 18.735C11.9826 18.7349 13.8963 18.0086 15.3795 16.6934C15.4172 16.6665 15.4517 16.6356 15.4824 16.6011C16.3154 15.8412 16.9806 14.9159 17.4356 13.8843C17.8907 12.8527 18.1255 11.7375 18.125 10.61C18.125 10.1811 18.0914 9.75282 18.0245 9.32917C18.0117 9.24809 17.983 9.17033 17.9401 9.10034C17.8973 9.03034 17.841 8.96948 17.7746 8.92124C17.7082 8.873 17.6329 8.83831 17.5531 8.81917C17.4733 8.80003 17.3905 8.7968 17.3094 8.80968Z" fill="#1A1B23"/>
</svg>
