<svg width="90" height="16" viewBox="0 0 90 16" fill="none" xmlns="http://www.w3.org/2000/svg">
<path d="M5.41671 15.7131C4.85433 14.5256 4.30015 13.2955 3.75417 12.0228C3.20819 10.75 2.68926 9.48791 2.19738 8.23647C1.70551 6.98914 1.25463 5.79429 0.844731 4.65193C0.542228 3.81545 0.270056 3.04459 0.0282182 2.33932C0.000441039 2.25498 -0.00696397 2.16526 0.00660264 2.0775C0.0201692 1.98975 0.0543269 1.90645 0.106274 1.83444C0.158222 1.76243 0.226484 1.70376 0.305468 1.66323C0.384451 1.6227 0.471912 1.60146 0.560681 1.60126H2.87002C2.98861 1.60128 3.10416 1.63876 3.20021 1.70834C3.29626 1.77791 3.36792 1.87605 3.40494 1.98875C3.6353 2.69483 3.88697 3.44561 4.15996 4.24108C4.48295 5.18416 4.81087 6.12355 5.1437 7.05926L6.10779 9.75074C6.41521 10.6085 6.7095 11.3491 6.99069 11.9723C7.2563 11.3523 7.54611 10.6143 7.86009 9.75812C8.17407 8.90196 8.49911 8.0048 8.83522 7.06664C9.17051 6.13175 9.49843 5.19277 9.81897 4.24968C10.092 3.45257 10.3444 2.69933 10.5764 1.98997C10.6131 1.87727 10.6845 1.77907 10.7803 1.70946C10.8762 1.63984 10.9917 1.6024 11.1101 1.60249H13.2891C13.3792 1.6025 13.4679 1.62409 13.5478 1.66547C13.6278 1.70684 13.6967 1.76678 13.7487 1.84027C13.8007 1.91376 13.8344 1.99866 13.8468 2.08784C13.8593 2.17703 13.8502 2.2679 13.8204 2.35285C13.5695 3.05894 13.2937 3.82858 12.9928 4.66177C12.5829 5.80168 12.132 6.99653 11.6401 8.24632C11.1483 9.49611 10.6326 10.7594 10.0932 12.0363C9.54966 13.3131 8.99836 14.5433 8.43927 15.7266L5.41671 15.7131Z" fill="#CACED4"/>
<path d="M18.714 4.70978C19.6092 4.70978 20.356 4.81188 20.9545 5.01607C21.4973 5.186 21.9901 5.48676 22.3895 5.89191C22.7555 6.28271 23.018 6.75885 23.1531 7.27702C23.3092 7.86856 23.3849 8.47844 23.3782 9.0902V15.4068C22.9429 15.5028 22.3383 15.6147 21.5644 15.7426C20.6346 15.8833 19.6949 15.9483 18.7545 15.937C18.1219 15.9428 17.4904 15.8813 16.8707 15.7537C16.3506 15.6495 15.8557 15.4452 15.4135 15.1522C15.0103 14.8782 14.687 14.5021 14.4765 14.0623C14.2451 13.5436 14.1337 12.9793 14.1506 12.4115C14.1331 11.8576 14.2635 11.309 14.5281 10.8222C14.7706 10.396 15.1176 10.0387 15.5365 9.78398C15.9828 9.51559 16.472 9.32585 16.9826 9.22305C17.5381 9.10605 18.1044 9.04791 18.6722 9.0496C19.0225 9.04735 19.3727 9.06459 19.7211 9.10126C19.9722 9.12477 20.2211 9.16879 20.465 9.23289V8.9475C20.4754 8.71943 20.4392 8.49165 20.3587 8.27804C20.2781 8.06443 20.1549 7.86948 19.9965 7.70509C19.6842 7.39264 19.1411 7.23642 18.3672 7.23642C17.8561 7.23644 17.3456 7.27385 16.8399 7.34836C16.585 7.3869 16.3485 7.43242 16.1304 7.48491C16.0546 7.50417 15.9757 7.50745 15.8985 7.49452C15.8214 7.4816 15.7479 7.45275 15.6825 7.40982C15.6172 7.36689 15.5615 7.31081 15.519 7.24517C15.4764 7.17952 15.4481 7.10575 15.4356 7.02853L15.2278 5.71846C15.2056 5.57916 15.2367 5.4366 15.3148 5.31919C15.393 5.20179 15.5125 5.11816 15.6496 5.08496L15.8107 5.04683C16.0763 4.98532 16.364 4.93119 16.6715 4.88322C16.9789 4.83525 17.3134 4.79465 17.6552 4.76021C17.9971 4.72577 18.3598 4.70978 18.714 4.70978ZM18.9599 13.5936C19.2587 13.5936 19.544 13.5936 19.8207 13.5727C20.0389 13.5651 20.2565 13.545 20.4724 13.5124V11.2097C20.3503 11.1826 20.167 11.1556 19.9227 11.1285C19.4323 11.0713 18.9367 11.0746 18.4471 11.1383C18.2175 11.1662 17.9941 11.2314 17.7856 11.3315C17.6045 11.419 17.4497 11.5526 17.3367 11.7189C17.2223 11.9031 17.1657 12.1173 17.1744 12.334C17.1744 12.8101 17.333 13.1385 17.6527 13.3181C17.9725 13.4977 18.3992 13.5936 18.9575 13.5936H18.9599Z" fill="#CACED4"/>
<path d="M30.4062 15.9161C29.5233 15.9029 28.8068 15.8078 28.2567 15.6307C27.7698 15.4917 27.323 15.2387 26.9533 14.8926C26.6341 14.5723 26.4087 14.1707 26.3015 13.7314C26.1807 13.2275 26.1229 12.7106 26.1294 12.1925V0.875502C26.1294 0.742001 26.177 0.612876 26.2635 0.511229C26.35 0.409582 26.4698 0.342054 26.6016 0.320729L28.5113 0.0132011C28.5916 0.000197438 28.6738 0.00479827 28.7522 0.0266929C28.8306 0.0485876 28.9033 0.087247 28.9652 0.140004C29.0272 0.19276 29.077 0.258353 29.1111 0.332246C29.1453 0.406139 29.163 0.486568 29.163 0.567975V11.5824C29.1607 11.8298 29.1812 12.0769 29.2245 12.3205C29.2577 12.5203 29.3382 12.7092 29.4594 12.8715C29.5915 13.0348 29.7628 13.1617 29.9574 13.2406C30.2377 13.3492 30.5339 13.4111 30.8342 13.4239L30.4062 15.9161Z" fill="#CACED4"/>
<path d="M32.0485 10.4359C32.0329 9.58427 32.1833 8.73778 32.4912 7.94367C32.7526 7.27854 33.1438 6.67218 33.6421 6.16001C34.1087 5.69083 34.6672 5.32313 35.2825 5.07997C35.888 4.83741 36.5339 4.71218 37.1861 4.71094C38.7068 4.71094 39.9086 5.17633 40.7915 6.10712C41.6745 7.0379 42.1159 8.40619 42.1159 10.212C42.1159 10.3891 42.1085 10.581 42.095 10.7938C42.0815 11.0066 42.068 11.1912 42.0544 11.3535H35.1682C35.1948 11.6508 35.2872 11.9385 35.4386 12.1957C35.59 12.4529 35.7967 12.6733 36.0437 12.8407C36.5585 13.2073 37.2508 13.3906 38.1206 13.3906C38.671 13.3914 39.2203 13.3403 39.7611 13.2381C40.0217 13.1889 40.2603 13.1335 40.4743 13.072C40.5505 13.0503 40.6304 13.045 40.7089 13.0563C40.7873 13.0676 40.8624 13.0954 40.9294 13.1378C40.9964 13.1802 41.0537 13.2362 41.0975 13.3022C41.1413 13.3683 41.1707 13.4428 41.1838 13.521L41.4076 14.8815C41.4296 15.0139 41.4035 15.1498 41.334 15.2647C41.2646 15.3795 41.1563 15.4657 41.0289 15.5076C40.9662 15.5285 40.8997 15.5507 40.8296 15.5716C40.5316 15.6591 40.2291 15.7306 39.9234 15.7856C39.5901 15.8459 39.2348 15.8976 38.8548 15.9382C38.4757 15.9784 38.0948 15.9986 37.7136 15.9984C36.8555 16.0168 36.0018 15.8719 35.1977 15.5716C34.5286 15.3148 33.9238 14.9147 33.4257 14.3993C32.9529 13.8963 32.5983 13.2941 32.3879 12.6365C32.1572 11.926 32.0426 11.1829 32.0485 10.4359ZM39.1806 9.27465C39.1664 9.01892 39.1218 8.76579 39.0478 8.5206C38.9765 8.28247 38.8586 8.06088 38.7011 7.86864C38.5389 7.67319 38.3379 7.51359 38.1108 7.39997C37.8342 7.2688 37.5302 7.20595 37.2242 7.21668C36.9233 7.20912 36.6243 7.26791 36.3487 7.38889C36.1136 7.49656 35.904 7.65296 35.7338 7.84772C35.5687 8.0432 35.4411 8.26758 35.3575 8.50952C35.27 8.75816 35.2054 9.01427 35.1645 9.27465H39.1806Z" fill="#CACED4"/>
<path d="M50.345 10.0276C50.345 9.0492 50.2196 8.35665 49.9687 7.94989C49.7179 7.54313 49.2867 7.33811 48.6751 7.33483C48.4779 7.33497 48.2809 7.34523 48.0848 7.36559C47.8807 7.38527 47.684 7.40987 47.4934 7.43694V15.146C47.4935 15.22 47.4791 15.2932 47.451 15.3616C47.4228 15.4299 47.3814 15.492 47.3292 15.5443C47.277 15.5967 47.215 15.6382 47.1468 15.6665C47.0785 15.6949 47.0053 15.7094 46.9314 15.7094H45.0217C44.8723 15.7094 44.7291 15.6501 44.6235 15.5444C44.5178 15.4388 44.4585 15.2955 44.4585 15.146V5.36051C44.7167 5.29326 45.0192 5.22192 45.366 5.14647C45.7116 5.07266 46.078 5.00377 46.4654 4.9435C46.8527 4.88322 47.2499 4.83402 47.6569 4.80081C48.0639 4.7676 48.4648 4.74915 48.8583 4.74915C49.633 4.74915 50.261 4.84796 50.7422 5.0456C51.1751 5.21295 51.5777 5.45024 51.9338 5.748C52.8353 5.12832 53.8962 4.78154 54.9895 4.74915C55.8438 4.74915 56.5463 4.86805 57.0972 5.10587C57.6161 5.32055 58.0692 5.66852 58.4105 6.11457C58.7476 6.57403 58.9775 7.10324 59.0832 7.66327C59.2108 8.32097 59.2721 8.98981 59.2664 9.65975V15.7119H56.2315V10.0276C56.2315 9.0492 56.1061 8.35665 55.8552 7.94989C55.6044 7.54313 55.1732 7.33811 54.5616 7.33483C54.3298 7.34672 54.1005 7.38805 53.8791 7.45785C53.6243 7.52365 53.3806 7.62687 53.1561 7.76414C53.2524 8.08462 53.3138 8.41456 53.3393 8.74823C53.3663 9.09512 53.3799 9.46416 53.3799 9.85533V15.7033H50.345V10.0276Z" fill="#CACED4"/>
<path d="M72.0374 10.3339C72.0458 11.1201 71.9211 11.9021 71.6685 12.6466C71.4444 13.3113 71.0838 13.9218 70.6097 14.4388C70.145 14.9369 69.5789 15.3295 68.9497 15.5902C68.2612 15.8701 67.5235 16.0086 66.7805 15.9974C66.0443 16.0075 65.3137 15.8691 64.6322 15.5902C64.0026 15.3301 63.4365 14.9374 62.9721 14.4388C62.4954 13.9201 62.1282 13.3105 61.8925 12.6466C61.627 11.9048 61.4959 11.1217 61.5051 10.3339C61.4953 9.54849 61.6299 8.76793 61.9023 8.03118C62.1458 7.37235 62.5197 6.76945 63.0017 6.25859C63.4743 5.76742 64.0432 5.37921 64.6728 5.11828C65.3407 4.84155 66.0576 4.70264 66.7805 4.70988C67.5102 4.70161 68.2342 4.84051 68.9091 5.11828C69.536 5.37814 70.1015 5.76659 70.5691 6.25859C71.0445 6.77084 71.4117 7.37372 71.6488 8.03118C71.9147 8.76941 72.0463 9.54931 72.0374 10.3339ZM68.9423 10.3339C68.9423 9.3966 68.7553 8.65854 68.3815 8.11975C68.0077 7.58096 67.4748 7.31239 66.7829 7.31403C66.4684 7.30102 66.1557 7.36813 65.8742 7.50905C65.5926 7.64998 65.3515 7.86011 65.1733 8.11975C64.7929 8.65608 64.6031 9.39414 64.6039 10.3339C64.6048 11.2738 64.7946 12.0171 65.1733 12.5641C65.3482 12.8284 65.5881 13.0432 65.87 13.1878C66.152 13.3323 66.4664 13.4018 66.7829 13.3895C67.0981 13.4027 67.4113 13.3335 67.6916 13.1887C67.9719 13.044 68.2097 12.8287 68.3815 12.5641C68.7545 12.0147 68.941 11.2713 68.941 10.3339H68.9423Z" fill="#CACED4"/>
<path d="M84.3401 10.3537C84.3504 11.1443 84.2227 11.9307 83.9625 12.6774C83.7301 13.3393 83.3586 13.9437 82.8731 14.45C82.3789 14.9508 81.7807 15.3367 81.1208 15.5804C80.3643 15.8562 79.5636 15.9909 78.7585 15.9778C78.3921 15.9778 78.0084 15.9605 77.6075 15.9261C77.2067 15.8916 76.8131 15.8478 76.427 15.7945C76.0397 15.7391 75.6695 15.6715 75.3203 15.6001C74.9711 15.5288 74.6551 15.4476 74.3833 15.3664V0.869526C74.3834 0.735845 74.4311 0.606573 74.5179 0.5049C74.6046 0.403227 74.7248 0.335806 74.8567 0.314745L76.7664 0.00721731C76.8468 -0.00578634 76.929 -0.00117799 77.0073 0.0207167C77.0857 0.0426114 77.1584 0.0812708 77.2204 0.134027C77.2824 0.186784 77.3322 0.252377 77.3663 0.32627C77.4005 0.400163 77.4181 0.480592 77.4182 0.561999V5.23642C77.7591 5.08706 78.1137 4.97089 78.4769 4.88953C78.8652 4.80562 79.2614 4.76437 79.6586 4.76652C80.3515 4.75319 81.0392 4.88868 81.6753 5.16385C82.2465 5.41934 82.7488 5.80678 83.1411 6.29432C83.5522 6.81769 83.8567 7.41655 84.0376 8.05706C84.2489 8.80393 84.3508 9.57754 84.3401 10.3537ZM81.2437 10.2725C81.2437 8.31662 80.5239 7.33868 79.0844 7.33868C78.7713 7.3392 78.4596 7.38055 78.1572 7.4617C77.8971 7.52568 77.6483 7.62896 77.4194 7.76799V13.29C77.5682 13.317 77.7588 13.3404 77.99 13.3601C78.2212 13.3798 78.472 13.3908 78.7438 13.3908C79.5709 13.3908 80.1952 13.1059 80.6166 12.5359C81.0379 11.966 81.247 11.2115 81.2437 10.2725Z" fill="#CACED4"/>
<path d="M90.0001 1.89834C90.0001 2.45435 89.8193 2.8935 89.4602 3.2121C89.108 3.52067 88.6557 3.69077 88.1875 3.69077C87.7193 3.69077 87.267 3.52067 86.9148 3.2121C86.5545 2.8935 86.375 2.45435 86.375 1.89834C86.375 1.34233 86.5545 0.903177 86.9148 0.583348C87.267 0.274777 87.7193 0.104675 88.1875 0.104675C88.6557 0.104675 89.108 0.274777 89.4602 0.583348C89.8193 0.903177 89.9993 1.34151 90.0001 1.89834ZM89.7209 15.7125H86.6861V5.55792C86.6861 5.40871 86.7453 5.2656 86.8506 5.15998C86.956 5.05436 87.0989 4.99486 87.2481 4.99453H89.159C89.3081 4.99486 89.4511 5.05436 89.5564 5.15998C89.6618 5.2656 89.7209 5.40871 89.7209 5.55792V15.7125Z" fill="#CACED4"/>
</svg>
