<svg xmlns="http://www.w3.org/2000/svg" width="16" height="16" viewBox="0 0 16 16" fill="none">
  <path d="M8.01172 1.79664C7.97676 1.79795 7.94206 1.80317 7.90827 1.81221L2.75202 3.19374C2.65252 3.22051 2.56461 3.27932 2.50188 3.36107C2.43916 3.44283 2.40512 3.54297 2.40503 3.64601V8.35823C2.40503 9.93211 3.18696 11.036 4.23059 11.8391C5.27422 12.6421 6.576 13.2168 7.79565 13.921C7.86691 13.9621 7.94775 13.9838 8.03003 13.9838C8.11231 13.9838 8.19314 13.9621 8.2644 13.921C9.44166 13.2413 10.7443 12.6656 11.7974 11.8574C12.8505 11.0492 13.655 9.93665 13.655 8.35823V3.64601C13.6549 3.54285 13.6207 3.44262 13.5578 3.36085C13.4949 3.27908 13.4068 3.22034 13.3071 3.19374L8.15088 1.81221C8.10554 1.80008 8.05863 1.79483 8.01172 1.79664ZM7.56128 2.87513V12.718C6.53843 12.1635 5.5367 11.662 4.80188 11.0966C3.891 10.3957 3.34253 9.64091 3.34253 8.35823V4.00581L7.56128 2.87513Z" fill="#00FFC4"/>
</svg>
